<?xml version="1.0" standalone="no"?>
<!DOCTYPE svg PUBLIC "-//W3C//DTD SVG 20010904//EN"
 "http://www.w3.org/TR/2001/REC-SVG-20010904/DTD/svg10.dtd">
<svg version="1.0" xmlns="http://www.w3.org/2000/svg"
 width="192.000000pt" height="192.000000pt" viewBox="0 0 192.000000 192.000000"
 preserveAspectRatio="xMidYMid meet">

<g transform="translate(0.000000,192.000000) scale(0.100000,-0.100000)"
fill="#000000" stroke="none">
<path d="M830 1909 c-36 -5 -103 -20 -150 -34 -690 -213 -906 -1081 -396
-1591 188 -187 414 -279 686 -277 101 1 145 6 225 27 459 120 761 552 714
1021 -12 122 -41 222 -94 330 -180 366 -577 577 -985 524z m290 -336 c72 -15
85 -21 85 -38 0 -19 -9 -20 -125 -26 -287 -15 -403 -64 -462 -193 -20 -45 -23
-66 -22 -174 0 -73 5 -127 11 -133 11 -11 144 1 255 23 44 9 61 9 70 0 25 -25
-105 -165 -208 -224 l-53 -29 16 -37 c55 -132 208 -387 261 -435 19 -17 20
-17 47 15 16 18 42 62 59 98 28 59 31 74 31 161 0 90 -2 100 -34 160 -99 185
-96 176 -95 274 0 59 6 102 16 126 34 78 125 152 213 173 17 4 68 12 114 16
146 16 222 69 293 206 40 77 68 87 68 25 0 -46 -32 -234 -60 -347 -81 -336
-257 -706 -453 -949 -58 -72 -190 -205 -203 -205 -19 0 -197 191 -271 290 -39
52 -103 150 -143 218 -40 67 -78 122 -85 122 -6 0 -45 -11 -85 -25 -91 -31
-104 -25 -149 67 -37 76 -56 179 -46 254 8 66 17 71 97 58 32 -6 58 -9 58 -7
0 1 -11 47 -25 101 -27 108 -55 275 -55 333 0 20 6 41 13 46 33 27 181 58 362
77 98 10 422 -3 505 -21z"/>
<path d="M1161 1144 c-17 -14 -36 -43 -42 -64 -10 -32 -9 -44 7 -76 53 -106
175 -106 228 0 16 32 17 44 7 76 -17 57 -61 90 -121 90 -37 0 -55 -6 -79 -26z"/>
</g>
</svg>
